<svg xmlns="http://www.w3.org/2000/svg" viewBox="0 0 128 160" x="0px" y="0px">
    <g>
        <g data-name="Glyph">
            <path fill="#1857b5" d="M7.5,121h98.673v2.375a4.5,4.5,0,0,0,7.77,3.092L126.6,113.093a4.5,4.5,0,0,0,0-6.185L113.943,93.533a4.5,4.5,0,0,0-7.77,3.092V99H7.5A7.508,7.508,0,0,0,0,106.5v7A7.508,7.508,0,0,0,7.5,121Z"/>
            <path fill="#1857b5" d="M48.86,22.091l13.37,14.14,0,0A4.5,4.5,0,0,0,70,33.14V30.509A34.968,34.968,0,0,1,84.54,93.287,1.509,1.509,0,0,0,85.423,96h16.5a1.5,1.5,0,0,0,1.458-1.146A7.5,7.5,0,0,1,110.7,89.12a7.393,7.393,0,0,1,3.733,1.011,1.509,1.509,0,0,0,2.116-.658A57.242,57.242,0,0,0,122,65,58.284,58.284,0,0,0,70,7.311V4.86a4.5,4.5,0,0,0-7.77-3.091L48.866,15.9A4.471,4.471,0,0,0,48.86,22.091Z"/>
            <path fill="#1857b5" d="M15.845,96H42.556a1.508,1.508,0,0,0,.883-2.712A34.968,34.968,0,0,1,51.531,32.3a1.51,1.51,0,0,0,.553-2.432l-5.41-5.722a7.449,7.449,0,0,1,.031-10.322l1.663-1.76A1.508,1.508,0,0,0,46.834,9.6,57.946,57.946,0,0,0,14.568,95.286,1.5,1.5,0,0,0,15.845,96Z"/>
        </g>
    </g></svg>