<?xml version="1.0" standalone="no"?>
<svg xmlns="http://www.w3.org/2000/svg" viewBox="0 0 1440 320">
    <path fill="#0066ff" fill-opacity="1" d="M0,224L24,229.3C48,235,96,245,144,261.3C192,277,240,299,288,288C336,277,384,235,432,208C480,181,528,171,576,186.7C624,203,672,245,720,229.3C768,213,816,139,864,117.3C912,96,960,128,1008,149.3C1056,171,1104,181,1152,170.7C1200,160,1248,128,1296,112C1344,96,1392,96,1416,96L1440,96L1440,320L1416,320C1392,320,1344,320,1296,320C1248,320,1200,320,1152,320C1104,320,1056,320,1008,320C960,320,912,320,864,320C816,320,768,320,720,320C672,320,624,320,576,320C528,320,480,320,432,320C384,320,336,320,288,320C240,320,192,320,144,320C96,320,48,320,24,320L0,320Z"></path>
</svg>